# xmcd
#
# Track frame offsets:
#	183
#	12988
#	26148
#	42563
#	57455
#	73883
#	88293
#	99700
#	117520
#	133360
#	148993
#	166743
#	183505
#	198910
#	212585
#	229985
#	242640
#	255060
#	268278
#	283620
#	301010
#	314208
#	328818
#
# Disc length: 4594 seconds
# Revision: 1
# Processed by: cddbd v1.5.2PL0 Copyright (c) Steve Scherf et al.
# Submitted via: dBpowerAMP V12.0
#
DISCID=6e11f017
DTITLE=Olivia Newton-John - 48 Original Tracks 1971-1975
DYEAR=1994
DGENRE=Pop
TTITLE0=My Old Man's Got A Gun
TTITLE1=Maybe Then I'll Think Of You
TTITLE2=Amoureuse
TTITLE3=Take Me Home, Country Roads
TTITLE4=I Honestly Love You
TTITLE5=Music Makes My Day
TTITLE6=Heartbreaker
TTITLE7=Leaving
TTITLE8=You Ain't Got The Right
TTITLE9=Feeling Best
TTITLE10=Rosewater
TTITLE11=Being On The Losing End
TTITLE12=If We Try
TTITLE13=Let Me Be There
TTITLE14=Country Girl
TTITLE15=Loving You Ain't Easy
TTITLE16=Have Love, Will Travel
TTITLE17=Hands Across The Sea
TTITLE18=Please Mr. Please
TTITLE19=The Air That I Breathe
TTITLE20=Loving Arms
TTITLE21=If You Love Me (Let Me Know)
TTITLE22=Have You Never Been Mellow
EXTD=
EXTT0=
EXTT1=
EXTT2=
EXTT3=
EXTT4=
EXTT5=
EXTT6=
EXTT7=
EXTT8=
EXTT9=
EXTT10=
EXTT11=
EXTT12=
EXTT13=
EXTT14=
EXTT15=
EXTT16=
EXTT17=
EXTT18=
EXTT19=
EXTT20=
EXTT21=
EXTT22=
PLAYORDER=
